{"asset":{"version":"2.0","generator":"VECTARY"},"nodes":[{"translation":[0,0.046869048424359565,0.03346674227377684],"scale":[0.001,0.001,0.001],"rotation":[-0.7071067811865476,0,0,0.7071067811865476],"name":"Sphere","mesh":0},{"translation":[0,0.004395741462707521,0],"scale":[0.001,0.001,0.001],"rotation":[-0.7071067811865476,0,0,0.7071067811865476],"name":"Merged Objects","mesh":1}],"materials":[{"pbrMetallicRoughness":{"baseColorFactor":[1,1,1,1],"baseColorTexture":{"index":0,"extensions":{"KHR_texture_transform":{"offset":[0.08,0.25],"scale":[1,1],"rotation":-0.5410520681182421}},"texCoord":0},"metallicFactor":0,"roughnessFactor":0.2},"name":"Hawaii Morning","emissiveFactor":[0,0,0],"extensions":{},"alphaMode":"OPAQUE","doubleSided":false},{"pbrMetallicRoughness":{"baseColorFactor":[1,1,1,1],"baseColorTexture":{"index":1,"extensions":{"KHR_texture_transform":{"offset":[0,0],"scale":[1,1],"rotation":0}},"texCoord":0},"metallicRoughnessTexture":{"index":3,"extensions":{"KHR_texture_transform":{"offset":[0,0],"scale":[1,1],"rotation":0}},"texCoord":0},"metallicFactor":0,"roughnessFactor":0.88},"name":"Antique 1","normalTexture":{"index":2,"scale":1,"extensions":{"KHR_texture_transform":{"offset":[0,0],"scale":[1,1],"rotation":0}},"texCoord":0},"emissiveTexture":{"index":4,"extensions":{"KHR_texture_transform":{"offset":[0,0],"scale":[1,1],"rotation":0}},"texCoord":0},"emissiveFactor":[0,0,0],"occlusionTexture":{"index":4,"strength":1,"extensions":{"KHR_texture_transform":{"offset":[0,0],"scale":[1,1],"rotation":0}},"texCoord":1},"extensions":{},"alphaMode":"OPAQUE","doubleSided":false}],"textures":[{"sampler":0,"source":0},{"sampler":0,"source":1},{"sampler":0,"source":2},{"sampler":0,"source":3},{"sampler":0,"source":4}],"images":[{"uri":"realistic-human-eye-texture-free-766.jpg","mimeType":"image/jpeg"},{"uri":"Skin_Lizard_002_basecolor.jpg","mimeType":"image/jpeg"},{"uri":"Skin_Lizard_002_normal.jpg","mimeType":"image/jpeg"},{"uri":"Image_Texture&Skin_Lizard_002_roughness.jpg","mimeType":"image/jpeg"},{"uri":"Skin_Lizard_002_ambientOcclusion.jpg","mimeType":"image/jpeg"}],"samplers":[{"wrapS":10497,"wrapT":10497}],"meshes":[{"primitives":[{"mode":4,"attributes":{"POSITION":1,"NORMAL":2,"TEXCOORD_0":3},"material":0,"indices":0}]},{"primitives":[{"mode":4,"attributes":{"POSITION":5,"NORMAL":6,"TEXCOORD_0":7,"TEXCOORD_1":8},"material":1,"indices":4}]}],"accessors":[{"bufferView":0,"byteOffset":0,"componentType":5125,"count":11904,"type":"SCALAR"},{"bufferView":1,"byteOffset":0,"componentType":5126,"count":2143,"max":[16.700000762939453,16.700000762939453,33.400001525878906],"min":[-16.700000762939453,-16.700000762939453,-7.629394644936838e-7],"type":"VEC3"},{"bufferView":2,"byteOffset":0,"componentType":5126,"count":2143,"type":"VEC3"},{"bufferView":3,"byteOffset":0,"componentType":5126,"count":2143,"type":"VEC2"},{"bufferView":4,"byteOffset":0,"componentType":5125,"count":25728,"type":"SCALAR"},{"bufferView":5,"byteOffset":0,"componentType":5126,"count":5060,"max":[48.35316467285156,48.35316467285156,82.64717102050781],"min":[-48.35316467285156,-48.35316467285156,0],"type":"VEC3"},{"bufferView":6,"byteOffset":0,"componentType":5126,"count":5060,"type":"VEC3"},{"bufferView":7,"byteOffset":0,"componentType":5126,"count":5060,"type":"VEC2"},{"bufferView":8,"byteOffset":0,"componentType":5126,"count":5060,"type":"VEC2"}],"bufferViews":[{"buffer":0,"byteOffset":0,"byteLength":47616,"target":34963},{"buffer":0,"byteOffset":47616,"byteLength":25716,"target":34962},{"buffer":0,"byteOffset":73332,"byteLength":25716,"target":34962},{"buffer":0,"byteOffset":99048,"byteLength":17144,"target":34962},{"buffer":0,"byteOffset":116192,"byteLength":102912,"target":34963},{"buffer":0,"byteOffset":219104,"byteLength":60720,"target":34962},{"buffer":0,"byteOffset":279824,"byteLength":60720,"target":34962},{"buffer":0,"byteOffset":340544,"byteLength":40480,"target":34962},{"buffer":0,"byteOffset":381024,"byteLength":40480,"target":34962}],"scene":0,"scenes":[{"nodes":[0,1],"name":"floating_Creep"}],"extensionsUsed":["KHR_texture_transform"],"buffers":[{"byteLength":421504,"uri":"floating_Creep.bin"}]}